# 3ds Max Wavefront OBJ Exporter v0.97b - (c)2007 guruware
# File Created: 19.11.2017 16:39:10

mtllib table.mtl

#
# object table
#

v  780.5475 500.0000 1011.0435
v  -719.4525 500.0000 1011.0435
v  -719.4525 500.0000 1661.0435
v  780.5475 500.0000 1661.0435
v  -669.4525 420.0000 1011.0435
v  -719.4525 420.0000 1011.0435
v  780.5475 420.0000 1011.0435
v  730.5475 420.0000 1011.0435
v  780.5475 420.0000 1611.0435
v  780.5475 420.0000 1061.0435
v  780.5475 420.0000 1661.0435
v  -669.4525 420.0000 1611.0435
v  730.5475 420.0000 1061.0435
v  -669.4525 420.0000 1640.3538
v  730.5475 0.0000 1061.0435
v  730.5475 0.0000 1011.0435
v  780.5475 0.0000 1011.0435
v  780.5475 0.0000 1061.0435
v  -669.4525 420.0000 1661.0435
v  730.5475 420.0000 1661.0435
v  -719.4525 420.0000 1661.0435
v  730.5475 420.0000 1611.0435
v  730.5475 0.0000 1661.0435
v  730.5475 0.0000 1611.0435
v  780.5475 0.0000 1611.0435
v  780.5475 0.0000 1661.0435
v  -719.4525 420.0000 1061.0435
v  -719.4525 420.0000 1611.0435
v  -719.4525 0.0000 1661.0435
v  -719.4525 0.0000 1611.0435
v  -669.4525 0.0000 1611.0435
v  -669.4525 0.0000 1661.0435
v  -669.4525 420.0000 1061.0435
v  -719.4525 0.0000 1061.0435
v  -719.4525 0.0000 1011.0435
v  -669.4525 0.0000 1011.0435
v  -669.4525 0.0000 1061.0435
# 37 vertices

vn 0.0000 1.0000 -0.0000
vn -0.0000 0.0000 -1.0000
vn 1.0000 0.0000 -0.0000
vn 0.0000 -1.0000 -0.0000
vn -1.0000 0.0000 0.0000
vn 0.0000 0.0000 1.0000
# 6 vertex normals

vt 1.0000 0.0000 0.0000
vt 1.0000 1.0000 0.0000
vt 0.0000 1.0000 0.0000
vt 0.0000 0.0000 0.0000
vt 0.9667 0.0000 0.0000
vt 0.0333 0.0000 0.0000
vt 0.0769 0.0000 0.0000
vt 0.9231 0.0000 0.0000
vt 0.9231 0.9667 0.0000
vt 0.0000 0.0333 0.0000
vt 0.0769 0.0333 0.0000
vt 0.9682 0.9667 0.0000
vt 0.9231 0.0333 0.0000
vt 1.0000 0.9667 0.0000
vt 1.0000 0.0333 0.0000
vt 0.4138 1.0000 0.0000
vt 0.0769 0.9667 0.0000
vt 0.0000 0.9667 0.0000
vt 0.9231 1.0000 0.0000
vt 0.0769 1.0000 0.0000
# 20 texture coords

g table
usemtl Material__44
s 4
f 1/1/1 2/2/1 3/3/1 4/4/1 
s 16
f 5/5/2 6/1/2 2/2/2 1/3/2 
f 1/3/2 7/4/2 8/6/2 5/5/2 
s 8
f 1/2/3 9/7/3 10/8/2 7/1/3 
f 9/7/3 1/2/3 4/3/3 11/4/3 
s 2
f 12/9/4 8/10/4 13/11/4 14/12/4 
f 15/2/4 16/3/4 17/4/4 18/1/4 
s 4
f 17/1/3 7/2/3 10/3/3 18/4/3 
s 1
f 16/1/2 8/2/2 7/3/2 17/4/2 
s 32
f 15/1/5 13/2/5 8/3/5 16/4/5 
s 64
f 18/1/6 10/2/6 13/3/6 15/4/6 
f 4/2/6 19/6/6 20/5/2 11/1/6 
f 19/6/6 4/2/6 3/3/6 21/4/6 
s 2
f 22/13/4 13/11/4 10/7/4 9/8/4 
f 23/2/4 24/3/4 25/4/4 26/1/4 
s 1
f 25/1/3 9/2/3 11/3/3 26/4/3 
s 16
f 24/1/2 22/2/2 9/3/2 25/4/2 
s 32
f 23/1/5 20/2/5 22/3/5 24/4/5 
s 4
f 26/1/6 11/2/6 20/3/6 23/4/6 
s 32
f 3/2/5 27/7/5 28/8/2 21/1/5 
f 27/7/5 3/2/5 2/3/5 6/4/5 
s 2
f 14/12/4 13/11/4 22/13/4 19/14/4 
f 20/15/4 19/14/4 22/13/4 
f 29/2/4 30/3/4 31/4/4 32/1/4 
s 8
f 12/2/3 14/16/3 32/4/3 31/1/3 
f 32/4/3 14/16/3 19/3/3 
s 16
f 30/1/2 28/2/2 12/3/2 31/4/2 
s 1
f 29/1/5 21/2/5 28/3/5 30/4/5 
s 4
f 32/1/6 19/2/6 21/3/6 29/4/6 
s 2
f 8/10/4 12/9/4 33/17/4 5/18/4 
f 28/19/4 27/20/4 33/17/4 12/9/4 
f 34/2/4 35/3/4 36/4/4 37/1/4 
s 8
f 36/1/3 5/2/3 33/3/3 37/4/3 
s 1
f 35/1/2 6/2/2 5/3/2 36/4/2 
s 4
f 34/1/5 27/2/5 6/3/5 35/4/5 
s 64
f 37/1/6 33/2/6 27/3/6 34/4/6 
# 34 polygons - 2 triangles

