# 3ds Max Wavefront OBJ Exporter v0.97b - (c)2007 guruware
# File Created: 09.03.2018 13:06:21

mtllib env.mtl

#
# object Box002
#

v  12.4944 0.0000 -80.7764
v  -87.5056 0.0000 -80.7764
v  -87.5056 0.0000 -90.7764
v  12.4944 0.0000 -90.7764
v  -87.5056 100.0000 -90.7764
v  -87.5056 100.0000 -80.7764
v  12.4944 100.0000 -80.7764
v  12.4944 100.0000 -90.7764
v  -87.5056 3.4002 -80.7764
v  12.4944 3.4002 -80.7764
v  -93.9793 0.0000 75.0000
v  -93.9793 0.0000 -75.0000
v  -88.9793 0.0000 -75.0000
v  -88.9793 0.0000 75.0000
v  -93.9793 100.0000 75.0000
v  -88.9793 100.0000 75.0000
v  -88.9793 100.0000 -75.0000
v  -93.9793 100.0000 -75.0000
v  -88.9793 3.4002 -75.0000
v  -88.9793 3.4002 75.0000
v  -88.9793 0.0000 80.7764
v  88.9793 0.0000 80.7764
v  88.9793 3.4002 80.7764
v  -88.9793 3.4002 80.7764
v  88.9793 0.0000 -80.7764
v  88.9793 3.4002 -80.7764
v  -88.9793 3.4002 -80.7764
v  -88.9793 0.0000 -80.7764
# 28 vertices

vn 0.0000 -1.0000 -0.0000
vn 0.0000 1.0000 -0.0000
vn 0.0000 0.0000 -1.0000
vn -1.0000 0.0000 -0.0000
vn 1.0000 0.0000 -0.0000
vn 0.0000 0.0000 1.0000
vn 0.0000 1.0000 0.0000
vn -0.0000 1.0000 0.0000
# 8 vertex normals

vt 0.0000 0.0000 0.0000
vt 1.0000 0.0000 0.0000
vt 1.0000 1.0000 0.0000
vt 0.0000 1.0000 0.0000
vt 1.0000 0.0340 0.0000
vt 0.0000 0.0340 0.0000
vt 0.0358 0.0000 0.0000
vt 0.0358 1.0000 0.0000
vt 0.9642 0.0000 0.0000
vt 0.9642 1.0000 0.0000
vt 0.4298 0.0000 0.0000
vt 0.4298 1.0000 0.0000
vt 1.0000 0.0358 0.0000
vt 1.0000 0.9642 0.0000
vt 0.9917 1.0000 0.0000
vt 0.0083 1.0000 0.0000
vt 0.0000 0.9642 0.0000
vt 0.5702 1.0000 0.0000
vt 0.0000 0.0358 0.0000
vt 0.9917 0.0000 0.0000
# 20 texture coords

g Box002
usemtl wire_224086086
s 2
f 1/1/1 2/2/1 3/3/1 4/4/1 
s 4
f 5/4/2 6/1/2 7/2/2 8/3/2 
s 32
f 8/4/3 4/1/3 3/2/3 5/3/3 
s 64
f 9/5/4 6/3/4 5/4/4 3/1/4 
f 2/2/4 9/5/4 3/1/4 
s 16
f 10/6/5 1/1/5 4/2/5 8/3/5 
f 7/4/5 10/6/5 8/3/5 
s 8
f 10/5/6 7/3/6 6/4/6 9/6/6 
s 2
f 11/2/1 12/3/1 13/4/1 14/1/1 
s 4
f 15/1/2 16/2/2 17/3/2 18/4/2 
s 16
f 19/5/5 17/3/5 16/4/5 20/6/5 
s 32
f 18/3/3 17/4/3 19/6/3 12/2/3 
f 12/2/3 19/6/3 13/1/3 
s 64
f 12/1/4 11/2/4 15/3/4 18/4/4 
s 8
f 20/5/6 16/3/6 15/4/6 11/1/6 
f 14/2/6 20/5/6 11/1/6 
f 21/1/6 22/2/6 23/3/6 24/4/6 
s 16
f 22/1/5 25/2/5 26/3/5 23/4/5 
s 64
f 13/7/4 19/8/4 27/4/4 28/1/4 
f 14/9/4 21/2/4 24/3/4 20/10/4 
s 32
f 1/11/3 10/12/3 26/4/3 25/1/3 
s 1
f 1/12/1 25/4/1 22/1/1 14/13/1 
f 22/1/1 21/2/1 14/13/1 
f 1/12/1 14/13/1 13/14/1 2/15/1 
f 28/3/1 2/15/1 13/14/1 
s 4
f 9/16/2 27/4/2 19/17/2 10/18/7 
f 19/17/2 20/19/5 24/1/8 10/18/7 
f 10/18/7 24/1/8 23/2/7 26/3/2 
s 32
f 2/20/3 28/2/3 27/3/3 9/15/3 
# 23 polygons - 6 triangles

