# 3ds Max Wavefront OBJ Exporter v0.97b - (c)2007 guruware
# File Created: 11.12.2017 11:05:21

mtllib plane.mtl

#
# object Plane001
#

v  -67.7312 0.2523 70.5662
v  -33.0751 0.2523 70.5662
v  1.5810 0.2523 70.5662
v  36.2371 0.2523 70.5662
v  70.8932 0.2523 70.5662
v  -67.7312 0.2523 35.0645
v  -33.0751 0.2523 35.0645
v  1.5810 0.2523 35.0645
v  36.2371 0.2523 35.0645
v  70.8932 0.2523 35.0645
v  -67.7312 0.2523 -0.4373
v  -33.0751 0.2523 -0.4373
v  1.5810 0.2523 -0.4373
v  36.2371 0.2523 -0.4373
v  70.8932 0.2523 -0.4373
v  -67.7312 0.2523 -35.9390
v  -33.0751 0.2523 -35.9390
v  1.5810 0.2523 -35.9390
v  36.2371 0.2523 -35.9390
v  70.8932 0.2523 -35.9390
v  -67.7312 0.2523 -71.4408
v  -33.0751 0.2523 -71.4408
v  1.5810 0.2523 -71.4408
v  36.2371 0.2523 -71.4408
v  70.8932 0.2523 -71.4408
# 25 vertices

vn 0.0000 1.0000 -0.0000
vn 0.0000 1.0000 -0.0000
vn 0.0000 1.0000 -0.0000
vn 0.0000 1.0000 -0.0000
vn 0.0000 1.0000 -0.0000
vn 0.0000 1.0000 -0.0000
vn 0.0000 1.0000 -0.0000
vn 0.0000 1.0000 -0.0000
vn 0.0000 1.0000 -0.0000
vn 0.0000 1.0000 -0.0000
vn 0.0000 1.0000 -0.0000
vn 0.0000 1.0000 -0.0000
vn 0.0000 1.0000 -0.0000
vn 0.0000 1.0000 -0.0000
vn 0.0000 1.0000 -0.0000
vn 0.0000 1.0000 -0.0000
vn 0.0000 1.0000 -0.0000
vn 0.0000 1.0000 -0.0000
vn 0.0000 1.0000 -0.0000
vn 0.0000 1.0000 -0.0000
vn 0.0000 1.0000 -0.0000
vn 0.0000 1.0000 -0.0000
vn 0.0000 1.0000 -0.0000
vn 0.0000 1.0000 -0.0000
vn 0.0000 1.0000 -0.0000
vn 0.0000 1.0000 -0.0000
vn 0.0000 1.0000 -0.0000
vn 0.0000 1.0000 -0.0000
vn 0.0000 1.0000 -0.0000
vn 0.0000 1.0000 -0.0000
vn 0.0000 1.0000 -0.0000
vn 0.0000 1.0000 -0.0000
vn 0.0000 1.0000 -0.0000
vn 0.0000 1.0000 -0.0000
vn 0.0000 1.0000 -0.0000
vn 0.0000 1.0000 -0.0000
vn 0.0000 1.0000 -0.0000
vn 0.0000 1.0000 -0.0000
vn 0.0000 1.0000 -0.0000
vn 0.0000 1.0000 -0.0000
vn 0.0000 1.0000 -0.0000
vn 0.0000 1.0000 -0.0000
vn 0.0000 1.0000 -0.0000
vn 0.0000 1.0000 -0.0000
vn 0.0000 1.0000 -0.0000
vn 0.0000 1.0000 -0.0000
vn 0.0000 1.0000 -0.0000
vn 0.0000 1.0000 -0.0000
vn 0.0000 1.0000 -0.0000
vn 0.0000 1.0000 -0.0000
vn 0.0000 1.0000 -0.0000
vn 0.0000 1.0000 -0.0000
vn 0.0000 1.0000 -0.0000
vn 0.0000 1.0000 -0.0000
vn 0.0000 1.0000 -0.0000
vn 0.0000 1.0000 -0.0000
vn 0.0000 1.0000 -0.0000
vn 0.0000 1.0000 -0.0000
vn 0.0000 1.0000 -0.0000
vn 0.0000 1.0000 -0.0000
vn 0.0000 1.0000 -0.0000
vn 0.0000 1.0000 -0.0000
vn 0.0000 1.0000 -0.0000
vn 0.0000 1.0000 -0.0000
# 64 vertex normals

vt 0.0000 0.0000 0.0000
vt 0.2500 0.0000 0.0000
vt 0.5000 0.0000 0.0000
vt 0.7500 0.0000 0.0000
vt 1.0000 0.0000 0.0000
vt 0.0000 0.2500 0.0000
vt 0.2500 0.2500 0.0000
vt 0.5000 0.2500 0.0000
vt 0.7500 0.2500 0.0000
vt 1.0000 0.2500 0.0000
vt 0.0000 0.5000 0.0000
vt 0.2500 0.5000 0.0000
vt 0.5000 0.5000 0.0000
vt 0.7500 0.5000 0.0000
vt 1.0000 0.5000 0.0000
vt 0.0000 0.7500 0.0000
vt 0.2500 0.7500 0.0000
vt 0.5000 0.7500 0.0000
vt 0.7500 0.7500 0.0000
vt 1.0000 0.7500 0.0000
vt 0.0000 1.0000 0.0000
vt 0.2500 1.0000 0.0000
vt 0.5000 1.0000 0.0000
vt 0.7500 1.0000 0.0000
vt 1.0000 1.0000 0.0000
# 25 texture coords

g Plane001
usemtl wire_177028149
s 1
f 6/6/1 1/1/2 2/2/3 7/7/4 
f 7/7/5 2/2/6 3/3/7 8/8/8 
f 8/8/9 3/3/10 4/4/11 9/9/12 
f 9/9/13 4/4/14 5/5/15 10/10/16 
f 11/11/17 6/6/18 7/7/19 12/12/20 
f 12/12/21 7/7/22 8/8/23 13/13/24 
f 13/13/25 8/8/26 9/9/27 14/14/28 
f 14/14/29 9/9/30 10/10/31 15/15/32 
f 16/16/33 11/11/34 12/12/35 17/17/36 
f 17/17/37 12/12/38 13/13/39 18/18/40 
f 18/18/41 13/13/42 14/14/43 19/19/44 
f 19/19/45 14/14/46 15/15/47 20/20/48 
f 21/21/49 16/16/50 17/17/51 22/22/52 
f 22/22/53 17/17/54 18/18/55 23/23/56 
f 23/23/57 18/18/58 19/19/59 24/24/60 
f 24/24/61 19/19/62 20/20/63 25/25/64 
# 16 polygons

