# 3ds Max Wavefront OBJ Exporter v0.97b - (c)2007 guruware
# File Created: 09.03.2018 13:08:41

mtllib plane.mtl

#
# object Box001
#

v  88.9793 0.0000 -80.7764
v  88.9793 0.0000 80.7764
v  -88.9793 0.0000 80.7764
v  -88.9793 0.0000 -80.7764
v  88.9793 3.4002 -80.7764
v  -88.9793 3.4002 -80.7764
v  -88.9793 3.4002 80.7764
v  88.9793 3.4002 80.7764
# 8 vertices

vn 0.0000 -1.0000 -0.0000
vn 0.0000 1.0000 -0.0000
vn 0.0000 0.0000 1.0000
vn 1.0000 0.0000 -0.0000
vn 0.0000 0.0000 -1.0000
vn -1.0000 0.0000 -0.0000
# 6 vertex normals

vt 0.0000 1.0000 0.0000
vt 0.0000 0.0000 0.0000
vt 1.0000 0.0000 0.0000
vt 1.0000 1.0000 0.0000
# 4 texture coords

g Box001
usemtl wire_229166215
s 2
f 1/1/1 2/2/1 3/3/1 4/4/1 
s 4
f 5/4/2 6/1/2 7/2/2 8/3/2 
s 8
f 8/4/3 7/1/3 3/2/3 2/3/3 
s 16
f 5/4/4 8/1/4 2/2/4 1/3/4 
s 32
f 6/4/5 5/1/5 1/2/5 4/3/5 
s 64
f 7/4/6 6/1/6 4/2/6 3/3/6 
# 6 polygons

