# 3ds Max Wavefront OBJ Exporter v0.97b - (c)2007 guruware
# File Created: 09.03.2018 13:03:11

mtllib pole.mtl

#
# object Cylinder001
#

v  47.7374 3.4002 -32.9721
v  49.2499 3.4002 -30.3523
v  49.7753 3.4002 -27.3730
v  41.0646 3.4002 -27.3730
v  42.5772 3.4002 -35.9514
v  45.4199 3.4002 -34.9167
v  36.7093 3.4002 -34.9167
v  39.5520 3.4002 -35.9513
v  32.8793 3.4002 -30.3523
v  34.3919 3.4002 -32.9721
v  32.8793 3.4002 -24.3938
v  32.3540 3.4002 -27.3730
v  36.7093 3.4002 -19.8294
v  34.3919 3.4002 -21.7740
v  42.5772 3.4002 -18.7947
v  39.5520 3.4002 -18.7947
v  47.7374 3.4002 -21.7740
v  45.4199 3.4002 -19.8294
v  49.2499 3.4002 -24.3938
v  49.2499 15.4246 -30.3523
v  49.7753 15.4246 -27.3730
v  47.7374 15.4246 -32.9721
v  45.4199 15.4246 -34.9167
v  42.5772 15.4246 -35.9514
v  39.5520 15.4246 -35.9513
v  36.7093 15.4246 -34.9167
v  34.3919 15.4246 -32.9721
v  32.8793 15.4246 -30.3523
v  32.3540 15.4246 -27.3730
v  32.8793 15.4246 -24.3938
v  34.3919 15.4246 -21.7740
v  36.7093 15.4246 -19.8294
v  39.5520 15.4246 -18.7947
v  42.5772 15.4246 -18.7947
v  45.4199 15.4246 -19.8294
v  47.7374 15.4246 -21.7740
v  49.2499 15.4246 -24.3938
v  49.2499 27.4490 -30.3523
v  49.7753 27.4490 -27.3730
v  47.7374 27.4490 -32.9721
v  45.4199 27.4490 -34.9167
v  42.5772 27.4490 -35.9514
v  39.5520 27.4490 -35.9513
v  36.7093 27.4490 -34.9167
v  34.3919 27.4490 -32.9721
v  32.8793 27.4490 -30.3523
v  32.3540 27.4490 -27.3730
v  32.8793 27.4490 -24.3938
v  34.3919 27.4490 -21.7740
v  36.7093 27.4490 -19.8294
v  39.5520 27.4490 -18.7947
v  42.5772 27.4490 -18.7947
v  45.4199 27.4490 -19.8294
v  47.7374 27.4490 -21.7740
v  49.2499 27.4490 -24.3938
v  49.2499 39.4735 -30.3523
v  49.7753 39.4735 -27.3730
v  47.7374 39.4735 -32.9721
v  45.4199 39.4735 -34.9167
v  42.5772 39.4735 -35.9514
v  39.5520 39.4735 -35.9513
v  36.7093 39.4735 -34.9167
v  34.3919 39.4735 -32.9721
v  32.8793 39.4735 -30.3523
v  32.3540 39.4735 -27.3730
v  32.8793 39.4735 -24.3938
v  34.3919 39.4735 -21.7740
v  36.7093 39.4735 -19.8294
v  39.5520 39.4735 -18.7947
v  42.5772 39.4735 -18.7947
v  45.4199 39.4735 -19.8294
v  47.7374 39.4735 -21.7740
v  49.2499 39.4735 -24.3938
v  49.2499 51.4979 -30.3523
v  49.7753 51.4979 -27.3730
v  47.7374 51.4979 -32.9721
v  45.4199 51.4979 -34.9167
v  42.5772 51.4979 -35.9514
v  39.5520 51.4979 -35.9513
v  36.7093 51.4979 -34.9167
v  34.3919 51.4979 -32.9721
v  32.8793 51.4979 -30.3523
v  32.3540 51.4979 -27.3730
v  32.8793 51.4979 -24.3938
v  34.3919 51.4979 -21.7740
v  36.7093 51.4979 -19.8294
v  39.5520 51.4979 -18.7947
v  42.5772 51.4979 -18.7947
v  45.4199 51.4979 -19.8294
v  47.7374 51.4979 -21.7740
v  49.2499 51.4979 -24.3938
v  49.2499 63.5223 -30.3523
v  49.7753 63.5223 -27.3730
v  47.7374 63.5223 -32.9721
v  45.4199 63.5223 -34.9167
v  42.5772 63.5223 -35.9514
v  39.5520 63.5223 -35.9513
v  36.7093 63.5223 -34.9167
v  34.3919 63.5223 -32.9721
v  32.8793 63.5223 -30.3523
v  32.3540 63.5223 -27.3730
v  32.8793 63.5223 -24.3938
v  34.3919 63.5223 -21.7740
v  36.7093 63.5223 -19.8294
v  39.5520 63.5223 -18.7947
v  42.5772 63.5223 -18.7947
v  45.4199 63.5223 -19.8294
v  47.7374 63.5223 -21.7740
v  49.2499 63.5223 -24.3938
v  41.0646 63.5223 -27.3730
# 110 vertices

vn 0.0000 -1.0000 -0.0000
vn 0.9397 0.0000 -0.3420
vn 1.0000 0.0000 -0.0000
vn 0.7660 0.0000 -0.6428
vn 0.5000 0.0000 -0.8660
vn 0.1736 0.0000 -0.9848
vn -0.1736 0.0000 -0.9848
vn -0.5000 0.0000 -0.8660
vn -0.7660 0.0000 -0.6428
vn -0.9397 0.0000 -0.3420
vn -1.0000 0.0000 -0.0000
vn -0.9397 0.0000 0.3420
vn -0.7660 0.0000 0.6428
vn -0.5000 0.0000 0.8660
vn -0.1736 0.0000 0.9848
vn 0.1736 0.0000 0.9848
vn 0.5000 0.0000 0.8660
vn 0.7660 0.0000 0.6428
vn 0.9397 0.0000 0.3420
vn 0.0000 1.0000 -0.0000
# 20 vertex normals

vt 0.8611 0.0000 1.0000
vt 0.8056 0.0000 1.0000
vt 0.7500 0.0000 1.0000
vt 0.5000 0.0000 0.0000
vt 0.9722 0.0000 1.0000
vt 0.9167 0.0000 1.0000
vt 0.0833 0.0000 1.0000
vt 0.0278 0.0000 1.0000
vt -0.0278 0.0000 1.0000
vt 0.1944 0.0000 1.0000
vt 0.1389 0.0000 1.0000
vt 0.3056 0.0000 1.0000
vt 0.2500 0.0000 1.0000
vt 0.4167 0.0000 1.0000
vt 0.3611 0.0000 1.0000
vt 0.5278 0.0000 1.0000
vt 0.4722 0.0000 1.0000
vt 0.6389 0.0000 1.0000
vt 0.5833 0.0000 1.0000
vt 0.6944 0.0000 1.0000
vt 0.8056 0.2000 1.0000
vt 0.7500 0.2000 1.0000
vt 0.8611 0.2000 1.0000
vt 0.9167 0.2000 1.0000
vt 0.9722 0.2000 1.0000
vt 0.0278 0.2000 1.0000
vt -0.0278 0.2000 1.0000
vt 0.0833 0.2000 1.0000
vt 0.1389 0.2000 1.0000
vt 0.1944 0.2000 1.0000
vt 0.2500 0.2000 1.0000
vt 0.3056 0.2000 1.0000
vt 0.3611 0.2000 1.0000
vt 0.4167 0.2000 1.0000
vt 0.4722 0.2000 1.0000
vt 0.5278 0.2000 1.0000
vt 0.5833 0.2000 1.0000
vt 0.6389 0.2000 1.0000
vt 0.6944 0.2000 1.0000
vt 0.8056 0.4000 1.0000
vt 0.7500 0.4000 1.0000
vt 0.8611 0.4000 1.0000
vt 0.9167 0.4000 1.0000
vt 0.9722 0.4000 1.0000
vt 0.0278 0.4000 1.0000
vt -0.0278 0.4000 1.0000
vt 0.0833 0.4000 1.0000
vt 0.1389 0.4000 1.0000
vt 0.1944 0.4000 1.0000
vt 0.2500 0.4000 1.0000
vt 0.3056 0.4000 1.0000
vt 0.3611 0.4000 1.0000
vt 0.4167 0.4000 1.0000
vt 0.4722 0.4000 1.0000
vt 0.5278 0.4000 1.0000
vt 0.5833 0.4000 1.0000
vt 0.6389 0.4000 1.0000
vt 0.6944 0.4000 1.0000
vt 0.8056 0.6000 1.0000
vt 0.7500 0.6000 1.0000
vt 0.8611 0.6000 1.0000
vt 0.9167 0.6000 1.0000
vt 0.9722 0.6000 1.0000
vt 0.0278 0.6000 1.0000
vt -0.0278 0.6000 1.0000
vt 0.0833 0.6000 1.0000
vt 0.1389 0.6000 1.0000
vt 0.1944 0.6000 1.0000
vt 0.2500 0.6000 1.0000
vt 0.3056 0.6000 1.0000
vt 0.3611 0.6000 1.0000
vt 0.4167 0.6000 1.0000
vt 0.4722 0.6000 1.0000
vt 0.5278 0.6000 1.0000
vt 0.5833 0.6000 1.0000
vt 0.6389 0.6000 1.0000
vt 0.6944 0.6000 1.0000
vt 0.8056 0.8000 1.0000
vt 0.7500 0.8000 1.0000
vt 0.8611 0.8000 1.0000
vt 0.9167 0.8000 1.0000
vt 0.9722 0.8000 1.0000
vt 0.0278 0.8000 1.0000
vt -0.0278 0.8000 1.0000
vt 0.0833 0.8000 1.0000
vt 0.1389 0.8000 1.0000
vt 0.1944 0.8000 1.0000
vt 0.2500 0.8000 1.0000
vt 0.3056 0.8000 1.0000
vt 0.3611 0.8000 1.0000
vt 0.4167 0.8000 1.0000
vt 0.4722 0.8000 1.0000
vt 0.5278 0.8000 1.0000
vt 0.5833 0.8000 1.0000
vt 0.6389 0.8000 1.0000
vt 0.6944 0.8000 1.0000
vt 0.8056 1.0000 1.0000
vt 0.7500 1.0000 1.0000
vt 0.8611 1.0000 1.0000
vt 0.9167 1.0000 1.0000
vt 0.9722 1.0000 1.0000
vt 0.0278 1.0000 1.0000
vt -0.0278 1.0000 1.0000
vt 0.0833 1.0000 1.0000
vt 0.1389 1.0000 1.0000
vt 0.1944 1.0000 1.0000
vt 0.2500 1.0000 1.0000
vt 0.3056 1.0000 1.0000
vt 0.3611 1.0000 1.0000
vt 0.4167 1.0000 1.0000
vt 0.4722 1.0000 1.0000
vt 0.5278 1.0000 1.0000
vt 0.5833 1.0000 1.0000
vt 0.6389 1.0000 1.0000
vt 0.6944 1.0000 1.0000
vt 0.5000 1.0000 0.0000
vt -0.0197 1.0000 0.8794
# 117 texture coords

g Cylinder001
usemtl wire_085028177
s 1
f 1/1/1 2/2/1 3/3/1 4/4/1 
f 5/5/1 6/6/1 1/1/1 4/4/1 
f 7/7/1 8/8/1 5/9/1 4/4/1 
f 9/10/1 10/11/1 7/7/1 4/4/1 
f 11/12/1 12/13/1 9/10/1 4/4/1 
f 13/14/1 14/15/1 11/12/1 4/4/1 
f 15/16/1 16/17/1 13/14/1 4/4/1 
f 17/18/1 18/19/1 15/16/1 4/4/1 
f 3/3/1 19/20/1 17/18/1 4/4/1 
s 8
f 2/2/2 20/21/2 21/22/3 3/3/3 
f 1/1/4 22/23/4 20/21/2 2/2/2 
f 6/6/5 23/24/5 22/23/4 1/1/4 
f 5/5/6 24/25/6 23/24/5 6/6/5 
f 8/8/7 25/26/7 24/27/6 5/9/6 
f 7/7/8 26/28/8 25/26/7 8/8/7 
f 10/11/9 27/29/9 26/28/8 7/7/8 
f 9/10/10 28/30/10 27/29/9 10/11/9 
f 12/13/11 29/31/11 28/30/10 9/10/10 
f 11/12/12 30/32/12 29/31/11 12/13/11 
f 14/15/13 31/33/13 30/32/12 11/12/12 
f 13/14/14 32/34/14 31/33/13 14/15/13 
f 16/17/15 33/35/15 32/34/14 13/14/14 
f 15/16/16 34/36/16 33/35/15 16/17/15 
f 18/19/17 35/37/17 34/36/16 15/16/16 
f 17/18/18 36/38/18 35/37/17 18/19/17 
f 19/20/19 37/39/19 36/38/18 17/18/18 
f 3/3/3 21/22/3 37/39/19 19/20/19 
f 20/21/2 38/40/2 39/41/3 21/22/3 
f 22/23/4 40/42/4 38/40/2 20/21/2 
f 23/24/5 41/43/5 40/42/4 22/23/4 
f 24/25/6 42/44/6 41/43/5 23/24/5 
f 25/26/7 43/45/7 42/46/6 24/27/6 
f 26/28/8 44/47/8 43/45/7 25/26/7 
f 27/29/9 45/48/9 44/47/8 26/28/8 
f 28/30/10 46/49/10 45/48/9 27/29/9 
f 29/31/11 47/50/11 46/49/10 28/30/10 
f 30/32/12 48/51/12 47/50/11 29/31/11 
f 31/33/13 49/52/13 48/51/12 30/32/12 
f 32/34/14 50/53/14 49/52/13 31/33/13 
f 33/35/15 51/54/15 50/53/14 32/34/14 
f 34/36/16 52/55/16 51/54/15 33/35/15 
f 35/37/17 53/56/17 52/55/16 34/36/16 
f 36/38/18 54/57/18 53/56/17 35/37/17 
f 37/39/19 55/58/19 54/57/18 36/38/18 
f 21/22/3 39/41/3 55/58/19 37/39/19 
f 38/40/2 56/59/2 57/60/3 39/41/3 
f 40/42/4 58/61/4 56/59/2 38/40/2 
f 41/43/5 59/62/5 58/61/4 40/42/4 
f 42/44/6 60/63/6 59/62/5 41/43/5 
f 43/45/7 61/64/7 60/65/6 42/46/6 
f 44/47/8 62/66/8 61/64/7 43/45/7 
f 45/48/9 63/67/9 62/66/8 44/47/8 
f 46/49/10 64/68/10 63/67/9 45/48/9 
f 47/50/11 65/69/11 64/68/10 46/49/10 
f 48/51/12 66/70/12 65/69/11 47/50/11 
f 49/52/13 67/71/13 66/70/12 48/51/12 
f 50/53/14 68/72/14 67/71/13 49/52/13 
f 51/54/15 69/73/15 68/72/14 50/53/14 
f 52/55/16 70/74/16 69/73/15 51/54/15 
f 53/56/17 71/75/17 70/74/16 52/55/16 
f 54/57/18 72/76/18 71/75/17 53/56/17 
f 55/58/19 73/77/19 72/76/18 54/57/18 
f 39/41/3 57/60/3 73/77/19 55/58/19 
f 56/59/2 74/78/2 75/79/3 57/60/3 
f 58/61/4 76/80/4 74/78/2 56/59/2 
f 59/62/5 77/81/5 76/80/4 58/61/4 
f 60/63/6 78/82/6 77/81/5 59/62/5 
f 61/64/7 79/83/7 78/84/6 60/65/6 
f 62/66/8 80/85/8 79/83/7 61/64/7 
f 63/67/9 81/86/9 80/85/8 62/66/8 
f 64/68/10 82/87/10 81/86/9 63/67/9 
f 65/69/11 83/88/11 82/87/10 64/68/10 
f 66/70/12 84/89/12 83/88/11 65/69/11 
f 67/71/13 85/90/13 84/89/12 66/70/12 
f 68/72/14 86/91/14 85/90/13 67/71/13 
f 69/73/15 87/92/15 86/91/14 68/72/14 
f 70/74/16 88/93/16 87/92/15 69/73/15 
f 71/75/17 89/94/17 88/93/16 70/74/16 
f 72/76/18 90/95/18 89/94/17 71/75/17 
f 73/77/19 91/96/19 90/95/18 72/76/18 
f 57/60/3 75/79/3 91/96/19 73/77/19 
f 74/78/2 92/97/2 93/98/3 75/79/3 
f 76/80/4 94/99/4 92/97/2 74/78/2 
f 77/81/5 95/100/5 94/99/4 76/80/4 
f 78/82/6 96/101/6 95/100/5 77/81/5 
f 79/83/7 97/102/7 96/103/6 78/84/6 
f 80/85/8 98/104/8 97/102/7 79/83/7 
f 81/86/9 99/105/9 98/104/8 80/85/8 
f 82/87/10 100/106/10 99/105/9 81/86/9 
f 83/88/11 101/107/11 100/106/10 82/87/10 
f 84/89/12 102/108/12 101/107/11 83/88/11 
f 85/90/13 103/109/13 102/108/12 84/89/12 
f 86/91/14 104/110/14 103/109/13 85/90/13 
f 87/92/15 105/111/15 104/110/14 86/91/14 
f 88/93/16 106/112/16 105/111/15 87/92/15 
f 89/94/17 107/113/17 106/112/16 88/93/16 
f 90/95/18 108/114/18 107/113/17 89/94/17 
f 91/96/19 109/115/19 108/114/18 90/95/18 
f 75/79/3 93/98/3 109/115/19 91/96/19 
s 1
f 109/115/20 93/98/20 92/97/20 110/116/20 
f 92/97/20 94/99/20 95/100/20 110/116/20 
f 95/117/20 96/103/20 97/102/20 110/116/20 
f 97/102/20 98/104/20 99/105/20 110/116/20 
f 99/105/20 100/106/20 101/107/20 110/116/20 
f 101/107/20 102/108/20 103/109/20 110/116/20 
f 103/109/20 104/110/20 105/111/20 110/116/20 
f 105/111/20 106/112/20 107/113/20 110/116/20 
f 107/113/20 108/114/20 109/115/20 110/116/20 
# 108 polygons

