# 3ds Max Wavefront OBJ Exporter v0.97b - (c)2007 guruware
# File Created: 27.11.2017 14:45:48

mtllib table.mtl

#
# object table
#

v  -719.4525 500.0000 1211.0435
v  780.5475 500.0000 1211.0435
v  780.5475 500.0000 561.0435
v  -719.4525 500.0000 561.0435
v  -669.4525 420.0000 561.0435
v  -719.4525 420.0000 561.0435
v  780.5475 420.0000 561.0435
v  730.5475 420.0000 561.0435
v  780.5475 420.0000 1161.0435
v  780.5475 420.0000 611.0435
v  780.5475 420.0000 1211.0435
v  -669.4525 420.0000 1161.0435
v  730.5475 420.0000 611.0435
v  -669.4525 420.0000 1190.3538
v  780.5475 0.0000 561.0435
v  780.5475 0.0000 611.0435
v  730.5475 0.0000 611.0435
v  730.5475 0.0000 561.0435
v  -669.4525 420.0000 1211.0435
v  730.5475 420.0000 1211.0435
v  -719.4525 420.0000 1211.0435
v  730.5475 420.0000 1161.0435
v  780.5475 0.0000 1161.0435
v  780.5475 0.0000 1211.0435
v  730.5475 0.0000 1211.0435
v  730.5475 0.0000 1161.0435
v  -719.4525 420.0000 611.0435
v  -719.4525 420.0000 1161.0435
v  -669.4525 0.0000 1161.0435
v  -669.4525 0.0000 1211.0435
v  -719.4525 0.0000 1211.0435
v  -719.4525 0.0000 1161.0435
v  -669.4525 420.0000 611.0435
v  -669.4525 0.0000 561.0435
v  -669.4525 0.0000 611.0435
v  -719.4525 0.0000 611.0435
v  -719.4525 0.0000 561.0435
# 37 vertices

vn 0.0000 1.0000 -0.0000
vn 0.0000 0.0000 -1.0000
vn 1.0000 0.0000 -0.0000
vn 0.0000 -1.0000 -0.0000
vn -1.0000 0.0000 -0.0000
vn 0.0000 0.0000 1.0000
# 6 vertex normals

vt 0.0000 1.0000 0.0000
vt 0.0000 0.0000 0.0000
vt 1.0000 0.0000 0.0000
vt 1.0000 1.0000 0.0000
vt 0.9667 0.0000 0.0000
vt 0.0333 0.0000 0.0000
vt 0.0769 0.0000 0.0000
vt 0.9231 0.0000 0.0000
vt 0.9231 0.9667 0.0000
vt 0.0000 0.0333 0.0000
vt 0.0769 0.0333 0.0000
vt 0.9682 0.9667 0.0000
vt 0.9231 0.0333 0.0000
vt 1.0000 0.9667 0.0000
vt 1.0000 0.0333 0.0000
vt 0.4138 1.0000 0.0000
vt 0.0769 0.9667 0.0000
vt 0.0000 0.9667 0.0000
vt 0.9231 1.0000 0.0000
vt 0.0769 1.0000 0.0000
# 20 texture coords

g table
usemtl Material__44
s 4
f 1/1/1 2/2/1 3/3/1 4/4/1 
s 16
f 5/5/2 6/3/2 4/4/2 3/1/2 
f 3/1/2 7/2/2 8/6/2 5/5/2 
s 8
f 3/4/3 9/7/3 10/8/2 7/3/3 
f 9/7/3 3/4/3 2/1/3 11/2/3 
s 2
f 12/9/4 8/10/4 13/11/4 14/12/4 
f 15/2/4 16/3/4 17/4/4 18/1/4 
s 4
f 10/1/3 16/2/3 15/3/3 7/4/3 
s 1
f 7/1/2 15/2/2 18/3/2 8/4/2 
s 32
f 8/1/5 18/2/5 17/3/5 13/4/5 
s 64
f 13/1/6 17/2/6 16/3/6 10/4/6 
f 2/4/6 19/6/6 20/5/2 11/3/6 
f 19/6/6 2/4/6 1/1/6 21/2/6 
s 2
f 10/7/4 9/8/4 22/13/4 13/11/4 
f 23/2/4 24/3/4 25/4/4 26/1/4 
s 1
f 11/1/3 24/2/3 23/3/3 9/4/3 
s 16
f 9/1/2 23/2/2 26/3/2 22/4/2 
s 32
f 22/1/5 26/2/5 25/3/5 20/4/5 
s 4
f 20/1/6 25/2/6 24/3/6 11/4/6 
s 32
f 1/4/5 27/7/5 28/8/2 21/3/5 
f 27/7/5 1/4/5 4/1/5 6/2/5 
s 2
f 14/12/4 13/11/4 22/13/4 19/14/4 
f 20/15/4 19/14/4 22/13/4 
f 29/2/4 30/3/4 31/4/4 32/1/4 
s 8
f 30/2/3 29/3/3 12/4/3 14/16/3 
f 30/2/3 14/16/3 19/1/3 
s 16
f 12/1/2 29/2/2 32/3/2 28/4/2 
s 1
f 28/1/5 32/2/5 31/3/5 21/4/5 
s 4
f 21/1/6 31/2/6 30/3/6 19/4/6 
s 2
f 8/10/4 12/9/4 33/17/4 5/18/4 
f 33/17/4 12/9/4 28/19/4 27/20/4 
f 34/2/4 35/3/4 36/4/4 37/1/4 
s 8
f 33/1/3 35/2/3 34/3/3 5/4/3 
s 1
f 5/1/2 34/2/2 37/3/2 6/4/2 
s 4
f 6/1/5 37/2/5 36/3/5 27/4/5 
s 64
f 27/1/6 36/2/6 35/3/6 33/4/6 
# 34 polygons - 2 triangles

